<?xml version="1.0" encoding="utf-8"?>
<!-- Generator: Adobe Illustrator 28.0.0, SVG Export Plug-In . SVG Version: 6.00 Build 0)  -->
<svg version="1.1" id="Réteg_1" xmlns="http://www.w3.org/2000/svg" xmlns:xlink="http://www.w3.org/1999/xlink" x="0px" y="0px"
	 viewBox="0 0 28.35 28.35" style="enable-background:new 0 0 28.35 28.35;" xml:space="preserve">
<style type="text/css">
	.st0{fill:#042F35;}
</style>
<path class="st0" d="M3.69,23.5h2.8c0-3.02,0-6.03,0-9.05c0.57,0.62,1.59,1.56,3.12,2.21c1.05,0.45,1.99,0.62,2.69,0.69
	c0,2.05,0,4.1,0,6.15h2.8v-8.83c-0.41,0.06-3.84,0.47-6.41-2.18C6.62,10.38,6.5,7.73,6.49,7.14h-2.8V23.5z"/>
<path class="st0" d="M21.94,14.67c0.54,0.5,1.29,1.32,1.91,2.51c0.71,1.36,0.94,2.62,1.03,3.4v2.92h-2.69
	c0.04-0.39,0.36-4.52-2.69-7.11c-1.72-1.46-3.64-1.68-4.41-1.72v-2.88h8.59c0.07-0.1,0.29-0.39,0.31-0.82
	c0.02-0.51-0.25-0.86-0.31-0.95h-8.59V7.14h11.39c0.29,0.78,0.68,2.04,0.69,3.64c0.02,1.73-0.39,3.09-0.69,3.89H21.94z"/>
</svg>
